# xmcd
#
# Track frame offsets:
#	183
#	18945
#	38483
#	53375
#	72200
#	95170
#	109593
#	131103
#	150913
#	167393
#
# Disc length: 2409 seconds
#
# Revision: 1
# Processed by: cddbd v1.5.2PL0 Copyright (c) Steve Scherf et al.
# Submitted via: audiograbber 1.83.01
#
DISCID=6c09670a
DTITLE=Minnie Ripperton - Adventures In Paradise
DYEAR=1975
DGENRE=R&B
TTITLE0=Baby, This Love I Have
TTITLE1=Feelin' That Your Feelin's Right
TTITLE2=When It Comes Down To It
TTITLE3=Minnie's Lament
TTITLE4=Love And Its Glory
TTITLE5=Adventures In Paradise
TTITLE6=Inside My Love
TTITLE7=Alone In Brewster Bay
TTITLE8=Simple Things
TTITLE9=Don't Let Anyone Bring You Down
EXTD=
EXTT0=
EXTT1=
EXTT2=
EXTT3=
EXTT4=
EXTT5=
EXTT6=
EXTT7=
EXTT8=
EXTT9=
PLAYORDER=
